<svg width="216" height="209pt" viewBox="0 0 162 209" xmlns="http://www.w3.org/2000/svg"><path fill="#fff" d="M0 0h162v209H0V0z"/><path fill="#f7941d" d="M62.8 2.25c4.65 0 9.29-.03 13.93.03.06 34.57.01 69.14.03 103.7 26.33.04 52.67.01 79 .02-.02 4.73 0 9.46-.02 14.2-30.99.1-61.99.02-92.98.04.02-39.33-.07-78.66.04-117.99z"/><path fill="#58585A" d="M82.76 2.25c4.66.01 9.33 0 13.99.01v97.98c-4.67.01-9.33.02-13.99.01-.01-32.67-.02-65.33 0-98zM4 106h53c0 4.75 0 9.5-.01 14.25-17.66.01-35.32 0-52.98 0C4 115.5 4 110.75 4 106zm58.76 20.01c4.66-.01 9.33-.02 13.99-.01-.01 26.75 0 53.5 0 80.24-4.67.02-9.33.01-14 .01 0-26.75 0-53.5.01-80.24zm20-.01c4.66 0 9.33-.01 14 .01-.01 26.74-.01 53.49-.01 80.24H82.76c-.01-26.75-.01-53.5 0-80.25z"/></svg>