<svg viewBox="0 0 772.75122 776.58691" xmlns="http://www.w3.org/2000/svg"><path d="M687.47 391.25L386.38 89.94 85.29 391.25v357.27c0 3.467.727 6.765 1.998 9.77s3.056 5.72 5.33 7.994 4.988 4.057 7.993 5.329 6.303 1.998 9.77 1.998h552c3.467 0 6.765-.727 9.77-1.999s5.72-3.055 7.994-5.329 4.057-4.988 5.329-7.993 1.998-6.303 1.998-9.77V391.25z" fill="#fff" stroke="#000" stroke-width="5.481"/><path d="M701.68 300.21L412.8 10.89c-3.558-3.556-7.864-6.365-12.434-8.216S390.963-.069 385.933.01c-4.837.069-9.614 1.039-13.989 2.886s-8.347 4.574-11.768 7.994l-289.1 289.32v105.25l315.3-315.52 315.3 315.52V300.21z" fill="#f2f2f2"/><path d="M687.47 286L412.8 10.89c-3.558-3.556-7.864-6.365-12.434-8.216S390.963-.069 385.933.01c-4.837.069-9.614 1.039-13.989 2.886s-8.347 4.574-11.768 7.994L85.286 286v105.25l301.09-301.31 301.09 301.31V286z" fill="#b3b3b3"/><path d="M110.35 50.162c-3.467 0-6.71.78-9.716 2.053s-5.731 2.994-8.005 5.268-4.065 5-5.337 8.005-1.984 6.318-1.984 9.784v315.97l133.21-133.35V75.282c0-3.467-.712-6.779-1.984-9.784s-3.063-5.732-5.337-8.005-5-3.997-8.005-5.268-6.318-2.053-9.784-2.053h-83.063z" fill="#fff" stroke="#000" stroke-width="5.481"/><path d="M385.93.005a37.184 37.184 0 0 0-25.757 10.88l-349.28 349.5c-14.532 14.532-14.532 38.093 0 52.624s38.093 14.532 52.624 0l322.85-323.07 322.85 323.07c14.532 14.532 38.093 14.532 52.624 0s14.532-38.093 0-52.624l-349.05-349.5A37.183 37.183 0 0 0 385.924.005z" fill="#fff" stroke="#000" stroke-width="5.481"/><path d="M531.15 773.61H241.6V416.34c0-3.467.727-6.765 1.998-9.77s3.056-5.72 5.33-7.994 4.988-4.057 7.993-5.329 6.303-1.998 9.77-1.998h239.36c3.467 0 6.765.726 9.77 1.998s5.72 3.056 7.993 5.33 4.058 4.988 5.33 7.993 1.998 6.303 1.998 9.77v357.27z" fill="#fff" stroke="#000" stroke-linecap="round" stroke-linejoin="round" stroke-width="5.481"/><path d="M509.24 582.43a31.278 31.278 0 1 1-62.556 0 31.278 31.278 0 1 1 62.556 0z"/></svg>